<svg xmlns="http://www.w3.org/2000/svg" width="120" height="120" viewBox="0 0 120 120">
    <g fill="none" fill-rule="evenodd">
        <rect width="120" height="120" fill="#00A6B9" rx="24"/>
        <g fill="#FFF" fill-rule="nonzero">
            <path d="M68.869 58.668l9.343-9.426L39.444 27.65a6.085 6.085 0 0 0-1.592-.631L68.87 58.668zM79.568 69.585l11.717-6.526c3.227-1.797 3.227-4.738 0-6.535l-11.37-6.334-9.732 9.819 9.385 9.576zM35.446 27.246c-1.147.594-1.869 1.946-1.869 3.885v57.321c0 1.956.734 3.316 1.9 3.902l32.07-32.353-32.101-32.755zM68.86 61.342L37.93 92.546c.484-.12.991-.322 1.514-.613l38.423-21.4-9.006-9.19z"/>
        </g>
    </g>
</svg>
