<svg xmlns="http://www.w3.org/2000/svg" width="100" height="100" viewBox="0 0 100 100">
    <g fill="none" fill-rule="evenodd">
        <g>
            <circle cx="50" cy="50" r="50" fill="#35B877"/>
            <g fill="#FFF" fill-rule="nonzero" transform="translate(14.444 18.889)">
                <path d="M70.578 32.244c-2.963-7.703-19.704-13.777-38.37-14.163C39.851 9.43 47.673 4.6 52.147 5.251c4.474.653 4.148 6.312 3.733 9.749a1.481 1.481 0 0 0 1.275 1.66 1.511 1.511 0 0 0 1.659-1.275C59.822 7.89 57.57 3.148 52.593 2.437 46.31 1.4 36.8 7.83 28.356 17.963c-3.255.064-6.501.34-9.719.83-1.126-6.578-.681-11.852 1.244-14.163 2.697-3.378 7.586-.415 10.282 1.63a1.481 1.481 0 0 0 1.807-2.341C25.956-.644 20.74-1.06 17.57 2.852c-2.607 3.26-3.11 9.185-1.866 16.533-6.993 1.54-12.148 4.03-14.43 7.467a6.785 6.785 0 0 0-.74 6.578 14.311 14.311 0 0 0 5.925 6.37 1.484 1.484 0 0 0 1.57-2.519 11.852 11.852 0 0 1-4.888-4.948 3.852 3.852 0 0 1 .444-3.822c1.6-2.34 5.926-4.711 12.563-6.104a72.06 72.06 0 0 0 2.963 9.363c-6.37 11.556-8.681 22.045-5.926 27.615a6.844 6.844 0 0 0 5.363 3.97c.434.032.87.032 1.304 0a18.074 18.074 0 0 0 9.185-3.23 1.484 1.484 0 1 0-1.57-2.518 13.689 13.689 0 0 1-8.504 2.726 3.881 3.881 0 0 1-3.111-2.31c-1.748-3.616-.8-11.853 4.77-22.756a89.57 89.57 0 0 0 4.741 9.363c7.111 12.237 15.556 20.148 22.074 20.74h.622a6.785 6.785 0 0 0 5.482-2.666c4.533-5.69 2.815-20.06-4.178-34.963a1.485 1.485 0 0 0-2.696 1.244c6.31 13.482 8.266 27.17 4.533 31.852a3.94 3.94 0 0 1-3.585 1.511c-4.474-.326-12.326-6.37-19.734-19.14a85.333 85.333 0 0 1-5.51-11.378l.236-.415a85.689 85.689 0 0 1 7.023-10.49h.503c19.526 0 35.2 6.4 37.57 12.356 1.304 3.29-1.836 5.719-4.71 7.17a1.484 1.484 0 1 0 1.363 2.638c5.63-2.756 7.851-6.726 6.222-10.845zm-49.482-3.94a66.607 66.607 0 0 1-1.866-6.49 67.14 67.14 0 0 1 6.696-.68 84.092 84.092 0 0 0-4.83 7.17z"/>
                <circle cx="35.556" cy="32.778" r="5.926"/>
            </g>
        </g>
        <path d="M-14-14h128v128H-14z"/>
    </g>
</svg>
