<svg xmlns="http://www.w3.org/2000/svg" width="100" height="90" viewBox="0 0 100 90">
    <g fill="none" fill-rule="evenodd">
        <path d="M-14-21h128v128H-14z"/>
        <path d="M0-5h100V95H0z"/>
        <path fill="#FFC100" d="M82.481 35.091l-8.632-12.05 6.144-4.562 9.576 7.272-7.088 9.34zM50 77.9L26.238 46.582h47.525L50 77.9zM19.993 18.49l7.95 4.726-9.135 13.574-8.378-11.04 9.563-7.26zm16.416 7.709l29.18.232 8.194 11.44h-45.23L36.41 26.2zM32.142 9.267H67.86l4.92 3.735-6.367 4.724-31.09-.246-7.852-4.667 4.672-3.546zM98.278 21.44l-15.06-11.437a4.253 4.253 0 0 0-1.138-.862L71.934 1.437a4.34 4.34 0 0 0-2.618-.881h-38.63c-.946 0-1.867.31-2.62.88L1.721 21.442a4.364 4.364 0 0 0-.834 6.11l45.66 60.176a4.331 4.331 0 0 0 6.907 0l45.66-60.176a4.366 4.366 0 0 0-.836-6.11z"/>
    </g>
</svg>
