<svg xmlns="http://www.w3.org/2000/svg" width="99" height="77" viewBox="0 0 99 77">
    <g fill="none" fill-rule="evenodd">
        <g fill-rule="nonzero">
            <path fill="#FD6D0B" d="M52.067 67.822c-.267-.8-.534-1.733-.8-2.533-2.134-6.933-3.734-16.4-4.667-26.4-1.467-18.4 0-38.267 5.733-38.8 3.2-.267 5.734 5.867 7.334 10.933 2.133 6.934 3.733 16.4 4.666 26.4 1.467 18.4 0 38.267-5.733 38.8-2.8.134-5.067-4-6.533-8.4zM57.533 8.89c-2-5.6-4-7.6-5.2-7.467-3.6.267-6.266 15.734-4.4 37.334.8 10 2.4 19.2 4.534 26.133 2.266 7.6 4.666 10.133 6 10 3.6-.267 6.266-15.733 4.4-37.333-.8-10-2.4-19.2-4.534-26.134-.266-.933-.533-1.866-.8-2.533z"/>
            <path fill="#FD6D0B" d="M33.933 17.289c-1.6-4.4-2.533-9.067-.266-10.667C38.333 3.29 52.2 17.69 62.733 32.89c5.734 8.267 10.4 16.533 13.2 23.333 2 4.934 4 11.334 1.334 13.067C72.6 72.622 58.733 58.222 48.2 43.022c-5.867-8.133-10.533-16.4-13.333-23.2-.4-.8-.667-1.6-.934-2.533zm41.734 42c-.267-.8-.534-1.6-.934-2.533-2.8-6.667-7.466-14.8-13.066-23.067-12.4-17.867-24.267-28-27.2-26-1.067.8-1.2 4.267 1.733 11.467 2.8 6.666 7.467 14.8 13.067 23.066 12.4 17.867 24.266 28 27.2 26 .933-.533 1.2-3.333-.8-8.933z"/>
            <path fill="#FFBE22" d="M33.4 46.222l-23.467 8.4-.4 15.2 14.267-5.2 14.4-5.2z"/>
            <path fill="#F89920" d="M28.6 32.889l-14.4 5.067-14.267 5.2 10 11.466 23.467-8.4z"/>
            <path fill="#F0670B" d="M97.4 23.156c3.2 8.666-12.8 22.4-35.6 30.666-22.8 8.134-43.867 7.734-47.067-.933 4.534 12.8 26.8 16.533 49.6 8.267 22.934-8.267 37.734-25.2 33.067-38z"/>
            <path fill="#F89920" d="M61.8 53.822c22.8-8.266 38.8-21.866 35.6-30.666L14.733 52.889c3.2 8.667 24.267 9.067 47.067.933z"/>
            <path fill="#FFD00E" d="M50.467 22.222c22.8-8.266 43.866-7.733 47.066.934-4.533-12.8-26.8-16.534-49.6-8.267s-37.733 25.2-33.2 38c-3.066-8.8 12.8-22.533 35.734-30.667z"/>
            <path fill="#FFBE22" d="M50.467 22.222c-22.8 8.267-38.8 21.867-35.6 30.667l82.666-29.733c-3.2-8.8-24.266-9.2-47.066-.934z"/>
            <path fill="#FD6D0B" d="M52.467 64.756c-1.734-5.734-3.2-13.2-4.134-21.334 10.534 15.067 24.134 29.2 28.8 26l-.8-1.066c-2.933 2-14.8-8.134-27.2-26l-1.2-1.6c0-.667-.133-1.334-.133-2-1.733-21.6.933-37.067 4.4-37.334L52.067.09c-5.734.533-7.2 20-5.734 38.4-4.533-6.8-8.133-13.467-10.4-19.067C32.867 12.09 33 8.622 34.2 7.956l-.8-1.067c-2.267 1.6-1.2 6.267.267 10.667.266.8.666 1.733.933 2.533 2.533 6.267 6.8 13.733 11.867 21.333.933 9.2 2.4 17.6 4.4 24 .266.8.533 1.734.8 2.534 1.6 4.4 3.866 8.533 6.533 8.4l-.133-1.334c-1.067-.133-3.334-2.666-5.6-10.266z"/>
        </g>
        <path d="M-15-26h128v128H-15z"/>
    </g>
</svg>
