<svg xmlns="http://www.w3.org/2000/svg" width="385" height="528" viewBox="0 0 385 528">
    <path fill="#FFF" fill-opacity=".2" fill-rule="evenodd" d="M253.95 305.296c6.227 9.896 13.997 15.79 21.63 23.881 1.642 2.131 9.852 7.792 13.401 10.247.631.47 1.264.926 1.917 1.389 1.425 1 2.836 2.058 4.4 2.86 4.414 2.18 9.664 6.25 14.13 8.952.94.559 1.902 1.073 2.894 1.573a75.962 75.962 0 0 0 4.173 2.073c2.109 1.183 8.95 3.109 11.285 3.513l1.418.53c.721.286 1.448.58 2.176.889.727.33 1.455.661 2.196.992 1.499.654 3.027 1.235 4.563 1.816a21.558 21.558 0 0 1 1.543-.008l.484.015c.787.353 1.559.742 2.33 1.161 3.915 2.674 10.23 2.535 14.708 5.58.919.727 1.816 1.484 2.742 2.212 1.748 1.286 3.651 3.02 3.893 5.285a30.778 30.778 0 0 0-.007 4.116c-.36 2.212-.022 5.417-2.131 6.762-2.197 3.992-6.15 7.703-10.778 8.865-2.457.233-4.445.386-6.029.467-4.866 1.782-14.5 3.81-14.734 3.708-4.313 7.703-6.598 16.685-13.195 23.087-3.983 2.036-8.318 3.161-12.373 4.977-1.36.132-2.712.345-4.034.669-1.007.029-2.006.051-3.012.066-.53.014-1.602.051-2.138.073-.331.008-1 .03-1.338.044l-1.418.052c5.18-2.86-3.387-1.654-5.436-1.86-.456 0-1.367.015-1.822.015-1.778 1.286-3.013 2.896-1.294 4.822l.213.58c.78 3.176 2.601 5.91 4.284 8.674 1.976 3.227 4.055 6.402 5.834 9.754 6.003 11.555 12.79 22.764 16.45 35.37 3.411 6.847 7.517 15.497 8.302 18.39.742.934 1.617 1.75 2.645 2.375 1.952 3.518 4.637 7.363 7.678 16.046-108.078 2.949-219.634 3.054-327.968.345-3.957-3.113.923-14.087 1.594-19.67 4.831-32.048 11.058-62.651 30.755-89.02 0-.537.007-1.61.015-2.146-.008-1.897-.044-3.771-.11-5.638.102-1.367.242-2.735.367-4.087 1.205 14.2.404 28.57.455 42.838-.036 2.984-.08 5.983-.14 8.99l.295 1.154c.632 1.947.5 3.969.668 6.034.89 2.837.485 5.895.684 8.835.058.493.19 1.485.257 1.985 1.043 5.873.264 11.908.448 17.847.03 2.763-.125 5.476-.191 8.269.771 3.8 1.36 9.394 5.914 10.268 3.968-.19 7.943-.198 11.917-.161 17.435.33 34.936-.72 52.334.58 5.812.258 11.638.118 17.464.162 6.613-.037 13.218-.03 19.837-.007 7.884.051 15.819-.405 23.673.566 4.364.176 8.736.154 13.107.154-1.293-4.19-4.1-7.85-4.753-12.26-1.058-10.622-.206-21.375-.309-32.04-.066-.302-.191-.897-.257-1.191-.896-.787-.911-2.014-.58-3.05-.037-.317-.125-.934-.162-1.243-.735-3.712-.86-7.556.154-11.21.059-3.432-.037-6.872-.007-10.283-.088-4.961-.096-9.96.573-14.877.051-.919.095-1.83.147-2.734.022-2.463.014-4.969.051-7.402-.117-8.57-.066-17.141.044-25.704a199.846 199.846 0 0 0-.33-4.22c-.36-3.006-.507-6.027-.515-9.033l-.198-5.653c-1.139-4.711-.735-9.739.242-14.421l.133-.662c-1.889-.55-3.894-.646-5.82-.837-10.013.69-20.167-.934-29.88-3.073-4.555-2.683 5.275-2.462 6.605-2.286 2.777.257 3.505 4.322 6.627 3.315 8.053-1.558 16.965-2.844 24.65.934.183-.17.543-.508.72-.684 1.418-3.094 1.763-6.505 1.587-9.879-1.41-3.256-2.234-8.313-6.774-7.32-1.124-.14-3.365-.412-4.482-.545l-.602-.066c-2.285-.03-4.57-.33-6.819-.661l-.602-.067c-2.006-.161-4.019-.485-5.995-.735l-.595-.073c-2.969.022-5.937.051-8.898.08-4.731.037-9.448.037-14.172-.058-.456.706-.926 1.404-1.323 2.154-1.52 7.651 9.742 8.585 7.715 15.318-4.622 1.617-9.508 2.22-14.379 2.374-1.888 2.44-5.628 3.33-8.111 1.308-1.88-1.764-4.533-2.874-6.458-.477-1.168 2.014-2.667 3.785-4.342 5.41-1.308 1.198-2.851 1.168-4.644-.096-1.844-.904-3.299-2.242-2.608-4.462a36.332 36.332 0 0 0-.8-2.536c-1.522.088-3.035.155-4.556.206-1.91.052-3.82.118-5.723.199-14.6.279-29.154 2.16-43.738 2.587 5.062-3.499 11.44-1.522 17.119-2.654 1.021-2.308 3.078-3.866 5.04-5.336 10.102-2.132 20.263-6.924 30.902-5.292 3.652-4.543-8.236-.897-10.154-1.801-5.576.573-11.204-2.992-16.626-.765-5.518.772-11.043-1.286-16.656-1.374-2.44-.294-4.893-.603-7.318-.956l.044-.661c.059-.64.17-1.933.228-2.58-1.72-1.14-3.512-2.146-5.246-3.249-2.755-1.676-5.275-3.741-7.604-5.961-2.454-2.227-4.533-4.815-6.253-7.637-.198-3.595-1.52-7.035-1.498-10.636-.206-5.123.14-10.247.668-15.333.647-.676.911-1.478.794-2.396.058-.53.169-1.573.22-2.095.375-2.022.338-4.11.456-6.13l.029-1.42c.198-1.69 1.073-3.219 1.741-4.762-2.542-1.301-1.44-5.616-2.454-7.91-.742-9.93 1.227-20.022 5.32-29.077.933-1.89 2.035-3.698 3.343-5.351l.36-.5c.874-1 1.77-1.97 2.63-2.977 5.036-5.296 4.44-6.75 4.665-13.606-.095-.904-.183-1.8-.264-2.705l-.03-.683c1.264-3.852 3.946-7.556 6.767-10.29 2.447-1.978 5.606-3.404 8.728-3.654 12.52-5.755 26.575-11.025 40.505-13.554 1.198-.088.617-1.779.654-2.55.184-5.97 2.38-11.622 5.878-16.385-1.756-9.224-10.264-15.957-10.293-25.697-1.565-5.042 4.224-7.762 4.356-12.488 1.771-5.461 2.609-12.312 7.737-15.642.169-.345.5-1.036.661-1.389-.683-1.485-.786-3.528.007-4.99-2.564-2.073 1.742-4.146 2.807-5.962.213-.169.647-.514.867-.683-.867-.912-.257-2.536.874-2.89.177-.962-.161-2.822 1.073-3.013.007-3.263.933-7.078 2.895-9.526.705-3.925 5.437-6.85 8.714-8.828.146-.14.44-.419.587-.551 1.198-1.14 2.513-2.205 3.96-3.021 1.477-2.492 4.666-4.307 7.48-4.52.14-1.448 2.674-1.125 3.526-.383l2.19-.169c.477-1.632 3.196-1.367 4.357-.573a51.47 51.47 0 0 1 2.505-1.154c.514-1.257 3.056-.948 4.13-.353l.837-.309c.198-1.308 3.32-1.36 3.482-.036 2.52.624 4.769 2.205 7.42 2.337 3.814.515 9.207-1.779 12.16 1.602 3.681-1.41 2.403 4.117 5.518 5.403 2.483 2.8 5.37 6.108 7.898 8.343 2.44-1.544 9.684 4.8 4.585 4.564.91 2.676 2.77 4.976 3.02 7.917-1.066-.552-2.19-1.992-3.314-.72a7.017 7.017 0 0 1 1.073 3.601c1.814.786 1.814 3.014 2.05 4.69 1.932 1.874 1.74 4.645 1.63 7.151 1.683.684.346 4.293.537 6.101.779 2.117 2.006 4.205 1.558 6.557 1.366 1.97 2.343 4.19 3.049 6.483 2.55 3.087 2.733 7.306 2.858 11.136 1.38-.162 1.3 2.175.485 2.822 0 .353 0 1.066-.008 1.426.816.632.926 2.97-.448 2.83l-.962 1.088c-.14.72-.39 1.419-.743 2.08-.08.191-.235.566-.315.75-.449 2.448-2.712 4.08-3.292 6.52.36.904 1.638 1.756 1.3 2.778 2.734 3.381 5.783 6.718 7.546 10.724 1.396 3.455 3.218 6.777 4.702 10.151.066.684.147 1.367.235 2.051.213.147.632.441.838.58 1.065 1.338 2.028 2.963 1.77 4.749-.176 1.264.03 2.58.875 3.587.286-.147.874-.456 1.16-.61 2.27-1.235 4.637-2.279 6.9-3.52 2.997-16.782 21.806-23.324 32.877-34.166.545-1.176 1.264-2.278 1.735-3.49.403-2.507.602-5.036.528-7.572-.08-6.968 6.055-11.599 11.425-15.017 5.577-8.335 8.92-17.971 14.386-26.321.999-.905 1.778-2.022 2.336-3.242 1.205-.573 2.38-1.286 3.219-2.36 1.557-1.903 4.356-3.19 3.878-6.122l.184-1.294-.294-1.301c.42-4.249 5.239-7.262 8.854-8.651.808-.816 1.616-1.64 2.498-2.382a80.344 80.344 0 0 0 5.201-16.112c4.732-6.38 3.85-15.98-1.638-21.676-1.866-3.925-5.532-7.439-6.04-11.827.06-.537.162-1.595.214-2.132-.17-.132-.522-.397-.698-.529l-.206-2.433c.095-1.176.272-2.462-.382-3.52-.603-1.25-1.242-2.485-1.8-3.75 5.73-1.11 2.366 7.542 3.556 10.578.661 4.8 3.938 8.475 6.627 12.297 2.498.86 3.975 3.293 3.916 5.895.287 1.132.492 2.279.5 3.447.103 3.3.271 6.652-.573 9.88-2.902 6.446-3.96 13.583-7.245 19.867-2.872 3.977 4.776 1.463 6.613 2.588 3.152.11 6.105 1.33 8.816 2.866 3.079 1.507 5.481 3.999 7.928 6.344 2.902-4.058 3.402-10.232 7.994-12.775.521-1.22.977-2.47 1.498-3.69-.25-1.242-.213-2.58.537-3.653.088-.294.25-.875.338-1.162.243-2.91 1.734-5.49 2.248-8.342a63.887 63.887 0 0 1-.53-2.808 26.817 26.817 0 0 1-.285-5.484 40.103 40.103 0 0 1 2.094 3.66c1.043 1.214 1.366 5.271 3.056 2.552 1.55-3.595.852-8.306 5.334-8.762.617-4.69-5.129-5.256-8.398-6.005-4.695-2.404-4.29 4.211-7.266 5.064-2.917-.426-3.725-3.212-2.8-5.946a72.168 72.168 0 0 0-1.63-1.441c-2.433-.346-4.27.235-3.91 3.028-4.297-1.881-4.245-8.276-5.745-12.451-1.887-3.036-8.868-3.418-7.251-7.77a19.118 19.118 0 0 0-3.424-4.072c-1.25-.514-2.505-1.007-3.681-1.676.654-4.145-1.808-7.784-3.24-11.51 1.036.536 2.681.808 2.895 2.175 4.885 2.977 5.194 11.496 10.873 13.378-.587 1.72 1.272 2.823 2.454 3.683 1.235-.383 3.013-.294 3.77-1.463.528-5.704 7.2-8.813 6.62-14.84l.748-.118c4.284 2.433 1 8.504-2.291 10.437l-.243.493c-.183 2.889-2.19 5.366-2.124 8.343 2.645-.47 6.767 2.227 8.457-1.03 2.065-2.33 5.019-4.777 7.252-7.1-.294 3.315-3.733 4.91-5.503 7.38 1.476 1.279 3.46 1.661 5.276 2.22 2.783-3.867 5.7-7.652 9.036-11.077.47-2.933-2.285-2.455-4.592-2.272.485-.852 1.543-1.095 2.38-1.477.185-1.242 3.211-1.213 3.365-.007 1.095.073 1.977 1.131 1.631 2.234-2.454 5.976-7.464 10.68-10.315 16.244 4.012-.007 6.01-4.454 8.898-6.725.139-.147.433-.449.58-.596-.11 1.551.58 2.411 2.182 2.22.242-.206.713-.617.948-.823a3.74 3.74 0 0 1 .46-.064c4.859-.8 7.804-4.983 10.59-8.668 1.19-1.551 2.506-3.05 3.115-4.947.176-1.992 2.623-.213 1.704.977-2.321 4.271-5.436 8.16-6.965 12.724-1.954 2.573-3.93 5.197-6.399 7.306 1.528.162 3.071.302 4.636.42.896-.699 1.852-1.36 2.917-1.802.25.214.757.64 1.006.846 1.639.58 3.3 1.088 4.997 1.462.161-.242.47-.72.631-.955 1.242-2.154 2.91-4.028 4.49-5.94.962-1.293 2.233-2.307 3.651-3.072-3.68 8.483-9.301 18.325-18.897 20.986-4.952 5.19-8.897 11.87-15.774 14.781-1.756 8.652-6.84 16.892-9.015 25.683-.918 4.24-4.746 8.328-2.005 12.605 1.447 1.096 2.16 3.183 1.352 4.881-.486 1.11-.567 2.33-.39 3.514.338 1.418.147 2.16-.58 2.234-.243 1.669-.677 3.315-1.19 4.925.139 2.602-1.669 4.888-2.168 7.431.345 2.088.315 4.22.088 6.314.037.507.125 1.507.169 2.007-.022 2.69-.015 5.402.03 8.1-.008 1.235 0 2.506-.375 3.712-.426 1.147-.537 2.367-.5 3.587l-.081.882c-.595 3.499-1.389 7.365-3.424 10.298-1.47 5.086-2.91 10.856-6.539 14.76-.668 2.895-3.687 4.211-4.085 7.291-.374.72-.771 1.433-1.212 2.117-2.395 2.014-4.195 4.947-4.482 8.085-.11 1.228-1.623 1.551-2.542 2.066-8.545 5.652-11.85 15.465-15.693 24.41-5.055 10.416-16.847 14.569-23.504 23.522-1.41 4.542-4.988 7.74-9.154 9.776-3.145 2.962-7.943 6.542-12.233 8.556-.199.713-.713 1.227-1.536 1.543.132 2.014.713 3.999.589 6.035 2.085.61 2.43 4.557 2.402 6.718 1.19-.794 1.153 2.235 1.19 3.153-.199 1.25-.353 2.5-.456 3.764.28.698.551 1.404.808 2.117 1.316 2.984.368 6.372.61 9.518-.066 3.83-.529 8.556-2.388 11.379.787 1.448.94 3.609-.066 4.99zm126.157-283.71c.037-1.353 3.291-1.353 3.335-.008a38.831 38.831 0 0 1-3.335.007zM369.204 9.75c.36-1.293 4.46-1.279 4.026.632-1.33-.316-2.681-.492-4.026-.632zm-69.966-1.205c3.54-3.029 3.525.816 2.747 3.587-.882-1.228-1.66-2.529-2.747-3.587zm-.589-7.483c-.117-1.404 3.255-1.418 3.218-.037-1.08.044-2.152.052-3.218.037zm68.278 11.908c-1.537 2.19-.905 6.483-4.6 5.843 1.425-1.91 2.336-5.079 4.6-5.843zm-210.61 155.516c-3.077.21-7.347-2.988-1.646-3.25 1.541.198 2.388.074 1.646 3.25zm.382-10.18c-.662-2.434 4.033-.86 4.386.778 1.087 2.382 5.459.103 5.804 2.176 1.176.39 1.146.948-.095 1.669a55.87 55.87 0 0 1-1.168.161 407.342 407.342 0 0 0-1.86-1.352c-1.863.286-3.739.356-5.602.207a3.535 3.535 0 0 1-1.017-.104c-4.1.176-8.192-1.08-12.27.154-1.197-.051-3.637.765-2.902-1.3 3.799 1.168 6.128-2.588 9.441-3.007 1.697.867 3.446 1.624 5.283.617zm-20.675-44.912c2.035.353 4.026.831 6.032 1.382 1.477.478 2.88 1.169 4.269 1.86l1.645.845c1.536-.39 2.954-1.102 4.401-1.742-.198 2.727-4.57 4.646-2.343 7.365.61 4.763-5.966-.514-7.186 3.05-.58-.874-1.227-1.712-2.248-.881-.375 1.514-1.227 2.675-2.939 2.249-2.69.632-4.592-.595-5.356-3.183-.955.522-1.837 1.169-2.77 1.735-.992-.551-3.394-.404-2.49-2.058 1.234-.934 2.365-2.044 3.79-2.676 5.908 1.492 7.054-3.8 2.83-6.086-3.101.375-6.297 2.044-8.685 4.16-.882.956-1.844 2.007-1.617-.124 2.403-4.065 7.877-7.557 12.667-5.896zm3.864 70.219c5.587 1.833 11.173 2.354 16.76 1.977 4.01.125 8.742-.919 10.41-5.035.69-2.91-.316-7.299 4.46-6.637 2.748-3.705 4.313-8.71 5.929-13.114 2.028-5.476-.037-14.524 7.259-16.34.786-5.755 3.527-11.4 2.366-17.214-.17-1.779-2.263-1.08-3.468-1.397-2.557.015-5.077-.228-7.48-1.095-.977 2.146-3.394 2.418-5.473 2.639-3.108-.118-3.534-6.314-5.312-1.242-2.8-.287 1.175-4.638 3.056-4.602l.801-.176 2.344.051c.455-.02 1.36-.072 1.807-.095 2.807-1.529 4.71 1.808 7.377 1.705 1.793-2.33.367-5.314-2.094-6.387a52.663 52.663 0 0 1-2.006-1.14c-2.535.412-4.886 1.463-6.92 3.014-.31.088-.92.272-1.22.36-1.668.522-5.357 1.14-3.784 3.587-.779.897-1.595 1.772-2.366 2.676-1.264.94-.794 2.565-.918 3.91.455 2.426 2.41 4.477 1.66 7.1-.118 2.94 2.204 5.11 2.55 7.939 1.425 1.433 2.138 3.741.749 5.572-2.359 3.99-7.23 2.94-10.176.103-1.984-.89-3.291-3.029-5.562-3.242-4.386.375-2.997-4.932 1.91-1.433 2.969-.331 5.268-2.176 7.73-3.66 1.33 1.058 2.535 2.256 3.923 3.248.625-3.16-2.233-4.19-3.982-6.05-.75-.97-1.499-1.94-2.175-2.962-1.785-2.587.103-6.21-.543-9.07l-.177-.603-.44-.36c-.317-.272-.948-.808-1.264-1.073.632-1.14 1.462-2.153 2.35-3.102a53.567 53.567 0 0 0 1.771-2.462c.14-.206.412-.61.551-.809.992-.566 2.014-1.088 3.02-1.632.17-.977.94-1.815 1.984-1.786 2.042-.455 4.122-.316 6.208-.39.309-.058.911-.183 1.212-.242 1.058-.132 3.182-.397 4.24-.536a6.343 6.343 0 0 1 3.908.742c2.682.676 2.322-1.793 2.212-3.66-.705-2.64.705-5.83-4.372-4.786 2.866-6.586.485-14.37-5.87-18.2-5.283.133-10.646.354-15.811-.918-4.21 1.676-3.578-1.72-2.74-3.41.433-.963.896-1.912 1.249-2.903-2.006-.735-6.319-3.977-4.078 2.167.257 1.493-1.154 2.25-2.109 3.08.044-2.808.661-5.638.17-8.438-1.154.375-3.432-.28-3.138 1.617 3.005 2.176-1.447 7.542-4.327 6.373l-.522-.081c-.794.103-1.58.198-2.366.28-2.461.455-4.937.279-7.406.132-.5.963-.904 1.984-1.52 2.881-3.66 4.741-9.794 7.424-10.757 13.87a43.561 43.561 0 0 1-1.102 2.286c.007 1.25.03 3.756.044 5.006 1.866 2.212 5.856 3.624 4.342 7.35-1.153 2.03-3.365.081-4.805-.558-3.79 6.402-1.477 13.693-2.505 20.625.213 1.896.411 3.837.764 5.726.184 1.25.433 2.491.676 3.726 2.792 2.455 5.194 5.77 2.006 9.063.242.985.5 1.97.83 2.94.28.89.617 1.765.926 2.654 1.197 4.204 3.754 7.806 6.649 11.033 3.96 4.094 7.64 8.416 12.585 11.408zm15.73-59.046c-3.864-1.147.882-5.895-1.109-8.857 4.046-2.979 2.092 7.086 1.11 8.857zm17.26 65.08c1.293-1.742 4.114-3.932 3.673-.066-.22 2.75-.955 5.417-1.983 7.968l-.588 4.307c-1.242-.279-2.461-.646-3.674-1-4.173-2.043-8.75-3.072-13.07-4.726-3.218-1.374.705-2.712 2.41-2.741 4.65-.265 9.022-1.853 13.232-3.742zm-15.925 48.31c.22-.058.669-.183.889-.242 3.887 4.27 9.794-2.763 13.9-4.69 2.433-1.602-.183-2.388-1.998-2.013 7.56-4.153 16.237-5.58 23.577-10.35.434 1.338 1.558 3.5-.272 4.27-6.803 3.963-12.835 9.498-20.388 11.909-4.29 2.146-8.677 4.101-13.026 6.1-1.97.596-1.47 2.771-1.653 4.381 2.975-.073 5.958-.073 8.948 0 .786 4.352-5.348 2.654-7.597 2.992-10.139-.706-19.66 3.873-29.491 5.608-6.48-.772-13.02-.683-19.529-.536 2.41 10.29 6.885 20.162 7.156 30.871-.933 5.58 3.637 9.365 6.378 13.598 5.664-.433 7.523 6.969 10.014 10.666-3.402 1.022-3.806-5.8-6.973-3.742-4.187-4.108-7.163-9.283-10.499-14.068-1.704-9.563-2.799-19.493-6.891-28.417 2.667-7.27-4.342-12.378-10.257-14.193l-4.577-.853c4.827-3.903 10.786 2.132 16.281 1.345 4.166 5.101 12.387 1.551 18.25 1.72 3.145-.103 6.084-1.514 8.876-2.86-.243-3.219 5.018-3.322 3.027-7.18-4.577-1.61-9.86-.934-13.908-4.073 4.592-4.821 12.776-1.947 17.67.882 4.04-.382 8.192.331 12.093-1.124zm59.74 26.389c.918-2.213 3.049-.588 4.658-.258 4.518 5.146 8.53 10.717 13.04 15.877 2.117 2.933 4.674 5.513 6.745 8.483 3.592 5.755 7.92 10.966 12.27 16.156l.543.69c6.228 9.897 13.998 15.792 21.63 23.882 1.643 2.131 9.853 7.792 13.402 10.247.631.47 1.264.926 1.917 1.389 1.425 1 2.836 2.058 4.4 2.86 4.414 2.18 9.664 6.25 14.13 8.952.94.559 1.902 1.073 2.894 1.573a75.962 75.962 0 0 0 4.173 2.073c2.109 1.183 8.95 3.109 11.285 3.513-1.415 1.259-3.301 2.695-6.693 1.779-23.694-8.674-44.193-24.315-62.002-41.89-6.627-9.217-14.415-17.582-20.83-26.954-6.56-9.923-12.621-20.331-21.562-28.372zm22.865-12.577c.853-8.828-7.942-13.422-10.586-20.801 6.752 6.284 12.159 13.708 17.919 20.867.61 2.022 3.615 7.873 3.813 2.786a55.99 55.99 0 0 1 2.219-.669c-.03.53-.081 1.595-.11 2.125-.199.713-.713 1.227-1.536 1.543-2.006 1.375-.162 4.366.588 6.035.684 2.278 1.448 4.542 2.402 6.718-.044.323-.147.963-.198 1.286-3.96-4.182-4.533-10.768-9.309-14.223-1.727-1.903-3.52-3.734-5.202-5.667zM52.801 218.635c4.217-1.301-3.3-2.161-.919-3.44 1.227.235 2.462.433 3.689.654 8.801 4.307 16.237 10.452 22.812 17.545 5.415 3.139 10.477 6.932 16.098 9.732 1.073 3.91-4.019 2.536-6.003 1.514-12.923-5.035-18.926-19.566-30.828-25.792-2.748-1.051-11.623 4.461-4.85-.213zm15.296 15.45c7.891 3.756 16.576 9.203 18.5 18.376-3.754-1.169-4.665-6.718-8.287-8.703-2.44-3.954-9.493-4.902-10.213-9.673zm22.05 40.317c7.17 3.594 13.32 9.534 16.229 17.112-3.27-.265-4.533-4.006-7.318-5.373-1.925-2.433-3.299-5.351-5.782-7.27-1.176-1.382-2.726-2.617-3.13-4.469zm124.98-61.53c3.343-1.852 1.138-11.753 5.642-6.571-.823 7.085 1.293 15.678-3.857 21.529-2.263-.36-5.099-.94-4.93 2.33-1.94 5.983-5.569 11.57-11.91 13.422 2.726 2.595 6.083 4.469 8.59 7.314-2.419 1.278-4.593-1.265-7.069-1.28-2.344-.602-3.446-3.116-5.003-4.285-5.738 2.396-11.807 2.117-17.721 3.176l-.625.169c-2.667.536-4.643-.03-2.96-2.86 4.099-.522 8.184-1.168 12.262-1.808 2.784-1.014 4.548-4.065 7.692-4.204-1.014 1.521-2.623 2.697-3.1 4.535 5.928.419 7.582-7.395 11.064-10.996 3.946-4.528 10.631-8.688 9.5-15.62a28.157 28.157 0 0 1 2.424-4.851zM318.887 99.477c4.012 1.147 4.967 8.027 3.806 10.32-1.66-2.462-2.513-7.02-3.806-10.32zM329.064 118c-.272-1.955-.764-6.093 2.292-5.218 1.124 7.835.75 15.774.933 23.66-.124 5.646-1.675 11.1-2.417 16.664 3.005-2.021 3.27-.64 2.351 2.389-1.47 5.086-2.91 10.856-6.539 14.76-.778.213-1.557.404-2.343.573 4.959-17.046 9.654-35.054 5.723-52.828zM88.796 336.447c.78 1.91 2.002 2.736 4.202 1.176 4.154-7.212.37-20.977 1.367-29.497 6.326 1.536.308 11.415 5.576 13.598.756-2.183 1.058-4.844 3.123-6.24-.566 3.454-1.639 6.798-2.308 10.246.103 4.726.184 9.452.096 14.193-.61 5.432-1.999 10.754-2.042 16.274-.69 2.22.764 3.558 2.607 4.462 3.788-1.397 8.114-9.453 10.312-15.762-.566-.686-1.403-1.174-2.337-1.57-1.337-2.757.647-5.587.882-8.358-.992-1.396-2.22-2.77-1.815-4.623 2.696-1.406 3.96.991 5.747 2.026.896-2.914 1.532-5.908 2.274-8.862l-.104-.632c-1.528-3.389 2.514-3.065 1.168.11.772 3.999 3.763 7.63 1.852 11.9-3.21 27.933-12.981 11.136-2.535 20.934 2.513-.433 5.519-.213 6.128-3.234-.478-2.587 2.82-12.1 3.747-18.317 1.36-2.742 4.092-4.454 6.34-6.402.603-2.933-.704-5.498-2.3-7.777-2.49-2.41-3.386-5.821-4.444-9.012-2.83-2.359-6.377-3.55-9.449-5.534-1.232.033-6.818-2.466-10.36-2.529-10.99-1.55-24.457-2.036-32.694 6.843-.389.897-.778 1.794-1.16 2.705.262 3.91.51 7.1.755 9.752.716 1.678 1.446 3.351 2.165 5.037-.978 2.11-.816 3.86.506 5.256.089.323.272.97.36 1.293-.318.722-.51 1.5-.535 2.282.27.757.563 1.504.885 2.312 1.807.3 3.367-.288 4.386-2.83 4.25-8.185-4.459-18.824 4.246-25.932 7.1 2.843.254 21.393 3.359 26.712zm84.604-70.821c1.586-3.521 6.465 2.396 9.044 3.925 3.16 2.668 6.34 5.373 8.845 8.703-6.23-3.705-11.571-8.938-17.89-12.628zm21.292 34.65c6.649 2.837 8.345 11.43 12.261 17.09-1.197.499-2.821.683-3.328-.839-1.822-5.998-6.494-10.548-8.933-16.252zm59.724 48.387c10.249 3.712 19.888 9.923 30.872 11.79 2.087.052 6.532 3.3-.727 1.463-10.617-1.375-21.402-4.616-30.05-11.136-.022-.53-.066-1.588-.095-2.117zm-11.502 56.569c1.513.661 2.997 1.404 4.474 2.16-.646 1.53-4.65 2.25-2.858 4.014 9.58 4.763 18.699 10.923 29.058 14.252 3.77 1.617 8.75.875 11.8 3.639-1.778 1.286-3.013 2.896-1.294 4.822l.213.58c.78 3.176 2.601 5.91 4.284 8.674a55.661 55.661 0 0 0-.64 3.19c8.671 12.628 13.828 27.182 20.19 41.022-.007 3.55-5.325 3.315-5.355 7.277 2.424.846 4.945 1.926 7.245.147.359 2.977 4.393 3.212 3.548 6.836 2.997.662 2.608 6.468 5.598 5.042.742.934 1.617 1.75 2.645 2.375-.176 1.808-.448 3.609-.426 5.439-1.646 3.749-5.878 1.602-8.707.514-1.733-7.526-8.72-12.407-9.903-20.353-10.007-5.865-10.962-19.662-16.392-29.769-.91-1.536-1.675-3.138-2.469-4.726-1.925-5.006-5.143-9.409-7.156-14.385-.675-1.962-2.623-1.345-4.166-1.007-1.564.088-3.636 1.72-2.578 3.418 2.755 5.63 4.71 11.746 4.717 18.082 1.58 4.8 2.836 9.703 4.585 14.45 2.291 5 2.542 10.688 5.069 15.584l.257.514a132.988 132.988 0 0 1-2.733 4.52c-3.064-2.418-.8-9.077-6.018-9.173-6.392-6.358-7.17-16.259-10.506-24.337 2.998-2.264.125-5.689-.859-8.269-3.006-5.704-4.283-12.113-7.15-17.854-.852-1.757-1.8-3.455-2.887-5.064-1.322-.074-2.645-.191-3.923-.537-.926-1.683-1.264-4.484-3.578-4.69.162 1.78.397 3.565.705 5.344-2.564 1.654-2.688-3.065-3.768-4.425-3.564-6.85-5.732-15.105-10.984-20.757-.199 5.902 6.17 10.643 4.614 16.56-2.182-4.917-4.776-9.636-6.855-14.59-.5-1.08-.97-2.161-1.47-3.227-1.22-4.249-.102-10.364-4.915-12.643-1.903.213-3.79-.051-5.253-1.36-1.647-4.461-9.346-10.79-12.05-3.91-1.498 2.86-2.41.176-3.401-1.507-3.57 1.875.103 7.064-.676 9.953-.022 2.925-.08 5.858-.162 8.805-5.326-2.778.162-7.732-2.057-11.937-.75-3.05.53-7.27-2.997-8.769-5.07-6.35 1.22 10.864-3.902 5.322-2.806-1.5-1.322-4.491-1.234-6.85-3.431-.89-3.6 3.8-3.725 5.924.08 3.668-5.305 4.116-4.114 8.313-1.323 3.16 3.02 10.915-2.543 8.791-2.329.427-1.072 4.668-1.91 6.696 2.69 2.632-4.878 13.32-3.916 6.307a262 262 0 0 1 .103-7.225l.059-.684c.727-8.137 1.263-16.502.125-24.61l-.125-.653c-.17-2.985-.301-5.947-.625-8.902-.117-1.404-.213-2.8-.272-4.197.037-3.962.11-7.93.177-11.878 2.726 3.352 1.094 8.475 2.197 12.466 2.703-1.117 3.49 1.022 4.018 3.279 2.028 1.088 4.225 1.315 6.334.308 2.975.199 5.613 2.11 7.75 4.117-3.526-4.933.28-9.93-1.836-14.951.617-2.235 3.446-3.499 4.93-5.27 2.557 3.359 5.18 6.703 8.052 9.82 1.683 4.38 6.253 5.336 9.581 7.799 7.457 8.71 15.672 16.957 26.06 22.154zm-67.718-83.244c-.823-1.675.764-3.226 2.167-3.873 3.424 7.38 5.93 15.178 9.596 22.477-.375.794-.801 1.566-1.36 2.257-4.018-6.667-7.64-13.562-10.403-20.86zm101.368 106.316c-.904.317-2.108.56-1.58 1.809 3.056 1.624 5.018 4.403 6.715 7.365 2.94 1.367 2.27-2.529.831-3.808-1.69-1.852-2.91-5.843-5.966-5.366z"/>
</svg>
