<svg xmlns="http://www.w3.org/2000/svg" width="220" height="59" viewBox="0 0 220 59">
    <g fill="#000" fill-rule="evenodd">
        <path d="M2.81 2.604c1.615 0 2.87 1.372 2.87 2.864v37.24c0 1.493-1.255 2.866-2.87 2.866C1.256 45.574 0 44.2 0 42.709V5.469c0-1.493 1.256-2.865 2.81-2.865M38.82 29.46c0-6.088-4.484-9.908-9.446-9.908-4.963 0-9.447 3.82-9.447 9.907v13.25c0 1.492-1.314 2.865-2.87 2.865-1.554 0-2.869-1.373-2.869-2.865V29.877c0-8.713 6.815-15.337 15.186-15.337 8.37 0 15.185 6.683 15.185 15.337V42.71c0 1.492-1.375 2.865-2.93 2.865-1.553 0-2.809-1.373-2.809-2.865v-13.25zM64.408 44.976h-2.99c-4.244 0-7.532-3.402-7.532-7.46V20.21h-2.332c-1.435 0-2.511-1.134-2.511-2.566 0-1.253 1.076-2.507 2.511-2.507h2.332v-5.132c0-1.552 1.375-2.805 2.929-2.805 1.494 0 2.87 1.253 2.87 2.805v5.132h5.5c1.375 0 2.57 1.074 2.57 2.507 0 1.432-1.195 2.566-2.57 2.566h-5.5v17.308c0 1.431 1.254 2.386 2.391 2.386h2.332a2.55 2.55 0 0 1 2.57 2.567c0 1.432-1.136 2.506-2.57 2.506M75.588 27.789h19.43c-.418-4.059-4.424-8.475-9.566-8.475-5.022 0-9.386 3.7-9.864 8.475zm0 4.594c.717 5.074 5.022 8.297 10.163 8.297 3.288 0 5.859-1.314 7.473-2.209.36-.18.837-.358 1.435-.358 1.435 0 2.451 1.075 2.451 2.447 0 1.134-.717 1.97-1.255 2.267-1.196.717-4.903 2.747-10.104 2.747-8.967 0-15.783-6.685-15.783-15.577 0-8.654 7.115-15.457 15.484-15.457 8.55 0 14.708 7.042 14.708 14.203 0 1.85-1.495 3.64-3.348 3.64H75.588zM112.774 42.709c0 1.492-1.316 2.865-2.87 2.865s-2.87-1.373-2.87-2.865V3.08c0-1.492 1.316-2.865 2.87-2.865s2.87 1.373 2.87 2.865V42.71zM145.536 29.579c0-5.67-4.006-10.086-9.745-10.086-5.858 0-10.163 4.774-10.163 10.504 0 5.73 4.185 10.682 10.163 10.682 5.859 0 9.745-4.654 9.745-10.384v-.716zm5.321 13.13c0 1.552-1.315 2.865-2.87 2.865-1.555 0-2.869-1.313-2.869-2.865v-1.553c-2.093 2.328-5.261 4.418-10.103 4.418-8.072 0-14.768-6.864-14.768-15.577 0-8.714 6.816-15.457 14.768-15.457 4.842 0 8.01 2.088 10.103 4.416v-1.552c0-1.611 1.434-2.864 2.87-2.864a2.868 2.868 0 0 1 2.87 2.864V42.71zM171.842 33.816l-9.147 10.922c-.418.536-1.255.836-2.033.836-1.494 0-2.63-1.255-2.63-2.567 0-.657.239-1.253.598-1.67l9.804-11.4-9.506-11.16c-.358-.418-.597-.955-.597-1.671 0-1.313 1.076-2.566 2.69-2.566.718 0 1.555.357 1.973.835l8.848 10.504 8.789-10.504c.478-.537 1.374-.835 2.092-.835 1.435 0 2.57 1.253 2.57 2.566 0 .716-.239 1.253-.597 1.67l-9.446 11.161 9.686 11.4c.358.417.597 1.013.597 1.67 0 1.312-1.135 2.567-2.571 2.567-.717 0-1.674-.3-2.092-.836l-9.028-10.922zM204.903 56.793c-.419 1.014-1.735 1.91-2.69 1.91-1.496 0-2.81-1.254-2.81-2.864 0-.478.239-1.135.418-1.612l3.946-10.445c-3.109 0-4.185-1.133-4.723-2.445l-9.745-22.978c-.12-.239-.18-.716-.18-.955 0-1.492 1.076-2.864 2.93-2.864.956 0 2.033.655 2.57 1.91l10.284 24.587 9.206-24.587c.419-1.075 1.495-1.91 2.751-1.91 1.554 0 2.87 1.253 2.87 2.924 0 .239-.3 1.134-.539 1.73l-14.288 37.6z"/>
    </g>
</svg>
