<svg xmlns="http://www.w3.org/2000/svg" xmlns:xlink="http://www.w3.org/1999/xlink" width="275" height="619" viewBox="0 0 275 619">
    <defs>
        <path id="a" d="M201.579 137.977V.267H.58v137.71z"/>
    </defs>
    <g fill="none" fill-rule="evenodd">
        <path fill="#FFF" d="M19.479 63.584c16.29-9.408 21.873-30.244 12.466-46.54C22.54.745 1.71-4.837-14.575 4.57c-16.29 9.408-21.87 30.247-12.463 46.544l17.027 29.503 29.49-17.034zM-39.506 97.655l29.493-17.037 17.027 29.506c9.407 16.293 3.823 37.132-12.463 46.544-16.29 9.408-37.12 3.822-46.52-12.472l-17.027-29.506 29.49-17.035zM-14.575 555.356c-16.29 9.408-21.87 30.244-12.463 46.54 9.4 16.295 30.23 21.88 46.517 12.473 16.29-9.408 21.873-30.247 12.466-46.544l-17.027-29.503-29.493 17.034zM44.41 521.284l-29.49 17.038-17.03-29.506c-9.407-16.297-3.824-37.133 12.466-46.544 16.287-9.408 37.116-3.822 46.517 12.472l17.03 29.506-29.493 17.034z"/>
        <g transform="translate(73.324 412.82)">
            <mask id="b" fill="#fff">
                <use xlink:href="#a"/>
            </mask>
            <path fill="#FFF" d="M30.07 74.395L.58 91.429l17.028 29.506c9.404 16.294 30.233 21.88 46.52 12.472l120.416-69.559c16.29-9.404 21.87-30.243 12.47-46.54-9.407-16.294-30.237-21.88-46.523-12.469L30.07 74.395z" mask="url(#b)"/>
        </g>
        <path fill="#FFF" d="M39.452 406.125l-17.027-29.506 29.493-17.035 89.6-51.756 29.497-17.034L188.04 320.3c9.4 16.297 3.82 37.132-12.47 46.54l-89.6 51.753c-16.286 9.412-37.116 3.83-46.52-12.468M5.398 347.114l17.027 29.503-92.25 53.286-17.027-29.506c-9.404-16.294-3.827-37.133 12.463-46.54l33.267-19.215c16.287-9.408 37.116-3.825 46.52 12.472"/>
        <path fill="#FFF" d="M171.014 290.795l-17.03-29.506c-9.404-16.294-3.824-37.133 12.466-46.544l57.32-33.108c16.287-9.405 37.117-3.826 46.524 12.471 9.4 16.294 3.82 37.133-12.47 46.54l-29.49 17.035-57.32 33.112zM-.494 271.826l-17.027-29.506 92.25-53.283 17.03 29.503c9.401 16.297 3.824 37.136-12.466 46.54l-33.267 19.214c-16.287 9.412-37.117 3.83-46.52-12.468M74.733 189.036l-17.03-29.506c-9.405-16.294-3.824-37.133 12.466-46.544l51.478-29.73c16.29-9.412 37.116-3.826 46.52 12.468 9.404 16.297 3.824 37.133-12.466 46.54L126.208 159.3l-51.475 29.737z"/>
    </g>
</svg>
