<svg xmlns="http://www.w3.org/2000/svg" width="263" height="617" viewBox="0 0 263 617">
    <g fill="#FFF" fill-rule="evenodd">
        <path d="M289.465 62.584c16.29-9.408 21.874-30.244 12.466-46.54-9.404-16.298-30.233-21.88-46.52-12.473-16.29 9.408-21.87 30.247-12.462 46.544l17.026 29.503 29.49-17.034zM230.48 96.655l29.493-17.037L277 109.124c9.407 16.293 3.824 37.132-12.463 46.544-16.29 9.408-37.12 3.822-46.52-12.472l-17.026-29.506 29.49-17.035zM171.495 130.724l29.493-17.034-17.03-29.506c-9.404-16.294-30.23-21.88-46.52-12.472L17.022 141.27c-16.29 9.405-21.87 30.243-12.47 46.537 9.407 16.297 30.237 21.88 46.527 12.472l120.416-69.556zM255.411 554.356c-16.29 9.408-21.87 30.244-12.462 46.54 9.4 16.295 30.23 21.88 46.516 12.473 16.29-9.408 21.874-30.247 12.466-46.544l-17.027-29.503-29.493 17.034zM275.385 346.114l17.026 29.503-92.25 53.286-17.027-29.506c-9.404-16.294-3.827-37.133 12.463-46.54l33.268-19.215c16.286-9.408 37.116-3.825 46.52 12.472M200.16 428.904l17.028 29.506c9.404 16.294 3.823 37.132-12.463 46.544l-51.482 29.73c-16.29 9.411-37.113 3.825-46.52-12.469-9.404-16.297-3.824-37.132 12.466-46.54l29.493-17.038 51.479-29.733zM235.438 211.815l17.027 29.503-29.49 17.038-89.603 51.756-29.493 17.034-17.027-29.51c-9.404-16.293-3.824-37.128 12.466-46.536l89.6-51.757c16.287-9.408 37.117-3.825 46.52 12.472M269.492 270.826l-17.027-29.506 92.25-53.283 17.031 29.503c9.4 16.297 3.824 37.136-12.466 46.54l-33.268 19.214c-16.287 9.412-37.116 3.83-46.52-12.468"/>
        <path d="M103.88 327.145l17.026 29.506c9.404 16.294 3.824 37.133-12.462 46.544L51.123 436.3c-16.29 9.408-37.12 3.829-46.523-12.468-9.404-16.294-3.82-37.133 12.466-46.541l29.493-17.034 57.32-33.112z"/>
    </g>
</svg>
