<svg xmlns="http://www.w3.org/2000/svg" width="84" height="92" viewBox="0 0 84 92">
    <path fill="none" fill-rule="evenodd" stroke="#9B9B9B" d="M16 69.906V31h52.5v38.906c0 2.188-.86 3.281-2.578 3.281h-6.563v12.188c0 1.563-.546 2.89-1.64 3.984C56.625 90.453 55.297 91 53.734 91H53.5c-1.094 0-2.187-.39-3.281-1.172-1.407-1.094-2.11-2.578-2.11-4.453V73.187H36.625v12.188c0 1.563-.547 2.89-1.64 3.984C33.89 90.453 32.562 91 31 91c-1.563 0-2.89-.547-3.984-1.64-1.094-1.094-1.641-2.422-1.641-3.985V73.187h-6.797c-1.719 0-2.578-1.093-2.578-3.28zM77.875 27.25c1.563 0 2.89.547 3.984 1.64 1.094 1.094 1.641 2.422 1.641 3.985v22.5c0 1.563-.547 2.89-1.64 3.984C80.765 60.453 79.437 61 77.874 61c-1.563 0-2.89-.547-3.984-1.64-1.094-1.094-1.641-2.422-1.641-3.985v-22.5c0-1.563.547-2.89 1.64-3.984 1.094-1.094 2.422-1.641 3.985-1.641zm-71.25 0c1.563 0 2.89.547 3.984 1.64 1.094 1.094 1.641 2.422 1.641 3.985v22.5c0 1.563-.547 2.89-1.64 3.984C9.515 60.453 8.187 61 6.624 61c-1.563 0-2.89-.547-3.984-1.64C1.547 58.265 1 56.937 1 55.374v-22.5c0-1.563.547-2.89 1.64-3.984 1.094-1.094 2.422-1.641 3.985-1.641zM55.141 6.86c3.437 1.562 6.21 3.867 8.32 6.913 2.11 3.047 3.437 5.586 3.984 7.618.547 2.03.899 3.984 1.055 5.859H16c.625-10 5-16.797 13.125-20.39l-4.219-5.157c0-.156.078-.312.235-.469L25.844 1l4.453 5.39c3.906-1.406 7.89-2.109 11.953-2.109 3.906 0 7.812.703 11.719 2.11L58.656 1c.157 0 .313.078.469.234l.469.47-4.453 5.155zM30.766 18.577c2.03 0 3.047-1.015 3.047-3.047 0-.781-.313-1.523-.938-2.226-.625-.703-1.328-1.055-2.11-1.055-.937 0-1.718.352-2.343 1.055s-.938 1.445-.938 2.226c0 .782.352 1.485 1.055 2.11.703.625 1.445.937 2.227.937zm22.968 0c.782 0 1.524-.312 2.227-.937.703-.625 1.055-1.328 1.055-2.11 0-.781-.352-1.523-1.055-2.226-.703-.703-1.445-1.055-2.227-1.055-2.03 0-3.047 1.094-3.047 3.281 0 2.032 1.016 3.047 3.047 3.047z"/>
</svg>
