<svg xmlns="http://www.w3.org/2000/svg" xmlns:xlink="http://www.w3.org/1999/xlink" width="122" height="122" viewBox="0 0 122 122">
    <defs>
        <circle id="a" cx="60" cy="60" r="59.024"/>
    </defs>
    <g fill="none" fill-rule="evenodd" transform="translate(1 1)">
        <use fill="#4086CD" xlink:href="#a"/>
        <circle cx="60" cy="60" r="59.524" stroke="#4086CD"/>
        <rect width="120" height="120" fill="#4086CD" rx="24"/>
        <circle cx="60.488" cy="60.488" r="46.878" stroke="#FFF" stroke-width="4"/>
        <path fill="#FFF" d="M29.234 88.78l2.63-11.713 6.573 4.165-9.203 7.548zm53.38-14.056c2.28-1.041 4.076-1.041 5.391 0 1.315 1.041 2.147 2.603 2.498 4.685.701 4.686.088 7.81-1.84 9.371-.702-1.561-1.885-2.82-3.55-3.774-1.666-.954-2.85-1.866-3.55-2.733-1.228-2.083-1.666-3.731-1.315-4.946.35-1.215 1.14-2.083 2.366-2.603zM58.948 46.61L51.06 59.626l-4.733 8.33-6.574 11.453-6.574-3.904 4.47-7.55 4.734-8.33 9.73-16.92c.525-.867 1.226-1.04 2.103-.52l4.207 2.343c.877.52 1.052 1.215.526 2.082zm-5.522 13.016H67.1l4.733 8.33H48.43l4.996-8.33zm31.555 8.33l-4.733-8.33h13.41v8.33h-8.677zm-44.703-8.33l-4.733 8.33h-9.204v-8.33h13.937zm37.866 0l2.367 4.425-6.311 3.905h-.263l-4.733-8.33-13.411-23.688c-.526-.868-.35-1.562.526-2.083l3.944-2.343c.876-.52 1.578-.347 2.104.521l15.777 27.593zm4.733 8.33l2.104 3.644-6.574 3.905-3.155-5.987 2.63-1.562 3.68-2.343 1.315 2.343z"/>
    </g>
</svg>
