<svg xmlns="http://www.w3.org/2000/svg" width="74" height="63" viewBox="0 0 74 63">
    <g fill="none" fill-rule="evenodd">
        <path fill="#FF2A63" d="M2.914 48.19a22.366 22.366 0 0 0-.582 4.886c0 5.728 3.106 9.531 9.707 9.531 5.474 0 9.913-3.252 13.108-8.5l-1.95 7.83h10.87l6.213-24.919c1.554-6.31 4.562-9.585 9.125-9.585 3.592 0 5.824 2.234 5.824 5.921 0 1.069-.097 2.232-.486 3.495L51.54 48.303a17.215 17.215 0 0 0-.679 4.853c0 5.438 3.203 9.415 9.9 9.415 5.727 0 10.29-3.687 12.814-12.52l-4.27-1.65c-2.136 5.919-3.981 6.988-5.437 6.988-1.456 0-2.233-.97-2.233-2.91 0-.874.195-1.843.485-3.01l3.108-11.16c.776-2.62 1.068-4.943 1.068-7.078 0-8.348-5.048-12.704-11.164-12.704-5.726 0-11.551 5.165-14.463 10.601l2.135-9.758H26.206l-2.33 8.595h7.766l-4.781 19.146c-3.756 8.348-10.654 8.483-11.52 8.29-1.421-.321-2.33-.86-2.33-2.708 0-1.066.194-2.596.68-4.443l7.28-28.88H2.527l-2.33 8.595h7.668L2.915 48.19zm13.688-34.83c3.592 0 6.6-2.816 6.6-6.506 0-3.687-3.008-6.501-6.6-6.501-3.592 0-6.6 2.814-6.6 6.501 0 3.69 3.008 6.506 6.6 6.506z"/>
        <path d="M-29-31H99V97H-29z"/>
    </g>
</svg>
