<svg xmlns="http://www.w3.org/2000/svg" xmlns:xlink="http://www.w3.org/1999/xlink" width="477" height="340" viewBox="0 0 477 340">
    <defs>
        <path id="a" d="M17.323.645H.015v20.472h17.308V.645z"/>
    </defs>
    <g fill="none" fill-rule="evenodd">
        <g transform="translate(224 -.645)">
            <mask id="b" fill="#fff">
                <use xlink:href="#a"/>
            </mask>
            <path fill="#5A81C2" d="M12.995 16.791a8.65 8.65 0 0 0 3.167-11.819 8.652 8.652 0 0 0-11.82-3.166 8.651 8.651 0 0 0-3.166 11.818l4.326 7.493 7.493-4.326z" mask="url(#b)"/>
        </g>
        <path fill="#4EA1DB" d="M222.008 24.798l7.493-4.326 4.326 7.493a8.65 8.65 0 0 1-3.167 11.82 8.651 8.651 0 0 1-11.819-3.168l-4.326-7.493 7.493-4.326z"/>
        <path fill="#3CC1D2" d="M207.022 33.45l7.493-4.325-4.326-7.493a8.653 8.653 0 0 0-11.82-3.167l-30.593 17.664a8.652 8.652 0 1 0 8.652 14.985l30.594-17.663z"/>
        <path fill="#69CAD7" d="M228.342 141.032a8.653 8.653 0 1 0 11.82 3.167l-4.327-7.493-7.493 4.326z"/>
        <path fill="#3CC1D2" d="M243.328 132.38l-7.493 4.325-4.326-7.493a8.65 8.65 0 0 1 3.168-11.818 8.651 8.651 0 0 1 11.819 3.167l4.325 7.492-7.493 4.326z"/>
        <path fill="#4EA1DB" d="M258.315 123.728l-7.493 4.325 4.326 7.493a8.65 8.65 0 0 0 11.819 3.167l30.594-17.663a8.651 8.651 0 0 0 3.167-11.819 8.651 8.651 0 0 0-11.82-3.167l-30.593 17.664zM242.069 103.135l-4.326-7.493 7.493-4.326L268 78.172l7.493-4.326 4.326 7.493a8.652 8.652 0 0 1-3.167 11.82L253.888 106.3a8.652 8.652 0 0 1-11.82-3.166"/>
        <path fill="#3CC1D2" d="M233.416 88.149l4.326 7.493-23.437 13.53-4.326-7.492a8.653 8.653 0 0 1 3.166-11.82l8.452-4.878a8.65 8.65 0 0 1 11.82 3.167"/>
        <path fill="#69CAD7" d="M214.305 109.173l4.326 7.493a8.65 8.65 0 0 1-3.167 11.82l-13.079 7.55a8.65 8.65 0 0 1-11.818-3.167 8.651 8.651 0 0 1 3.167-11.819l7.493-4.326 13.078-7.55z"/>
        <path fill="#5A81C2" d="M275.494 73.846l-4.326-7.493a8.65 8.65 0 0 1 3.167-11.819l14.562-8.408a8.653 8.653 0 0 1 8.653 14.986l-7.493 4.326-14.563 8.408z"/>
        <path fill="#3CC1D2" d="M223.268 54.044l4.326 7.492-7.493 4.326-22.765 13.144-7.493 4.326-4.325-7.493a8.65 8.65 0 0 1 3.167-11.819l22.764-13.143a8.653 8.653 0 0 1 11.819 3.166"/>
        <path fill="#4EA1DB" d="M231.92 69.03l-4.326-7.493 23.437-13.531 4.326 7.492a8.651 8.651 0 0 1-3.166 11.819l-8.452 4.88a8.652 8.652 0 0 1-11.819-3.167"/>
        <path fill="#5A81C2" d="M251.032 48.005l-4.326-7.493c-2.39-4.139-.972-9.43 3.167-11.819l13.079-7.55a8.65 8.65 0 0 1 11.818 3.166 8.65 8.65 0 0 1-3.166 11.818l-7.493 4.326-13.08 7.552z"/>
        <path fill="#69CAD7" d="M189.843 83.332l4.326 7.493a8.65 8.65 0 0 1-3.167 11.819l-14.562 8.409a8.654 8.654 0 0 1-8.653-14.987l7.493-4.326 14.563-8.408z"/>
        <path fill="#000" d="M6.093 217.508c3.5 0 6.222 2.981 6.222 6.222v80.885c0 3.242-2.722 6.223-6.222 6.223-3.37 0-6.093-2.98-6.093-6.223V223.73c0-3.24 2.722-6.222 6.093-6.222M84.17 275.838c0-13.222-9.724-21.518-20.483-21.518s-20.48 8.296-20.48 21.518v28.777c0 3.242-2.85 6.223-6.224 6.223-3.369 0-6.22-2.98-6.22-6.223v-27.869c0-18.926 14.776-33.313 32.924-33.313s32.925 14.517 32.925 33.313v27.87c0 3.241-2.98 6.222-6.352 6.222-3.369 0-6.09-2.98-6.09-6.223v-28.777zM139.648 309.54h-6.481c-9.204 0-16.332-7.389-16.332-16.202v-37.59h-5.056c-3.112 0-5.445-2.464-5.445-5.575 0-2.721 2.333-5.445 5.445-5.445h5.056v-11.147c0-3.37 2.98-6.093 6.35-6.093 3.24 0 6.222 2.722 6.222 6.094v11.147h11.927c2.98 0 5.572 2.332 5.572 5.444 0 3.11-2.591 5.575-5.572 5.575h-11.927v37.59c0 3.11 2.72 5.184 5.186 5.184h5.055a5.533 5.533 0 0 1 5.574 5.576c0 3.11-2.464 5.442-5.574 5.442M163.888 272.21h42.128c-.907-8.814-9.592-18.406-20.74-18.406-10.889 0-20.352 8.035-21.388 18.405zm0 9.98c1.556 11.019 10.89 18.019 22.035 18.019 7.13 0 12.704-2.853 16.204-4.796.78-.39 1.815-.779 3.111-.779 3.111 0 5.314 2.334 5.314 5.315 0 2.462-1.555 4.277-2.722 4.924-2.592 1.558-10.629 5.966-21.907 5.966-19.442 0-34.22-14.52-34.22-33.834 0-18.794 15.426-33.571 33.573-33.571 18.537 0 31.888 15.295 31.888 30.85 0 4.019-3.24 7.906-7.259 7.906h-46.017zM244.515 304.616c0 3.24-2.853 6.223-6.223 6.223-3.369 0-6.221-2.982-6.221-6.223v-86.07c0-3.242 2.852-6.223 6.221-6.223 3.37 0 6.223 2.98 6.223 6.223v86.07zM315.55 276.098c0-12.314-8.687-21.907-21.13-21.907-12.702 0-22.036 10.37-22.036 22.814 0 12.445 9.074 23.203 22.035 23.203 12.703 0 21.13-10.11 21.13-22.554v-1.556zm11.536 28.518c0 3.37-2.852 6.222-6.222 6.222-3.372 0-6.222-2.852-6.222-6.222v-3.372c-4.538 5.056-11.407 9.594-21.906 9.594-17.5 0-32.018-14.908-32.018-33.833 0-18.925 14.777-33.572 32.018-33.572 10.5 0 17.368 4.536 21.906 9.592v-3.37c0-3.5 3.11-6.222 6.222-6.222 3.37 0 6.222 2.722 6.222 6.222v54.961zM372.585 285.301l-19.833 23.721c-.907 1.166-2.722 1.816-4.407 1.816-3.24 0-5.703-2.724-5.703-5.574 0-1.427.517-2.723 1.296-3.629l21.258-24.759-20.61-24.24c-.777-.907-1.296-2.074-1.296-3.63 0-2.85 2.333-5.573 5.833-5.573 1.556 0 3.37.777 4.277 1.814l19.185 22.815 19.055-22.815c1.037-1.167 2.98-1.814 4.536-1.814 3.111 0 5.574 2.722 5.574 5.573 0 1.556-.519 2.723-1.296 3.63l-20.48 24.24 21 24.76c.776.905 1.295 2.201 1.295 3.628 0 2.85-2.462 5.574-5.575 5.574-1.554 0-3.629-.65-4.536-1.816l-19.573-23.72zM444.266 335.207c-.907 2.202-3.76 4.147-5.833 4.147-3.241 0-6.092-2.722-6.092-6.22 0-1.038.519-2.464.907-3.5l8.556-22.687c-6.741 0-9.074-2.462-10.241-5.312l-21.129-49.906c-.259-.519-.388-1.556-.388-2.075 0-3.24 2.332-6.22 6.351-6.22 2.074 0 4.407 1.423 5.574 4.148l22.295 53.403 19.962-53.404c.907-2.333 3.24-4.147 5.964-4.147 3.37 0 6.222 2.72 6.222 6.35 0 .52-.649 2.464-1.167 3.76l-30.981 81.663z"/>
    </g>
</svg>
