<svg xmlns="http://www.w3.org/2000/svg" width="68" height="90" viewBox="0 0 68 90">
    <defs>
        <linearGradient id="a" x1="17.552%" x2="57.83%" y1="10.834%" y2="70.208%">
            <stop offset="0%" stop-color="#C36AD5"/>
            <stop offset="100%" stop-color="#662CAA"/>
        </linearGradient>
    </defs>
    <g fill="none" fill-rule="evenodd">
        <path d="M-33-21H95v128H-33z"/>
        <path d="M-11 0h90v90h-90z"/>
        <path fill="url(#a)" fill-rule="nonzero" d="M45.316 63.318c3.832 0 6.939-3.088 6.939-6.896 0-3.81-3.107-6.897-6.94-6.897-3.831 0-6.938 3.088-6.938 6.897-.001 3.808 3.106 6.896 6.939 6.896zm-34.059 11.91L11.25 33.54C11.25 15.016 26.36 0 45 0s33.75 15.016 33.75 33.54-14.795 33.54-33.434 33.54c-5.923 0-10.724-4.772-10.724-10.658 0-5.886 4.801-10.657 10.724-10.657 6.793 0 11.986-5.473 11.986-12.225 0-6.75-5.508-12.224-12.301-12.224-6.794 0-12.301 5.473-12.301 12.223l.007 45.804c.002 10.329-11.331 13.15-17.522 8.465a6.876 6.876 0 0 0 3.006-5.682c-.002-3.807-3.105-6.893-6.934-6.897z" transform="translate(-11)"/>
    </g>
</svg>
