<svg xmlns="http://www.w3.org/2000/svg" xmlns:xlink="http://www.w3.org/1999/xlink" width="249" height="59" viewBox="0 0 249 59">
    <defs>
        <path id="a" d="M6.636.147H.115v7.574h6.52V.147z"/>
        <path id="c" d="M.115 7.682h6.52V.11H.116v7.573z"/>
        <path id="e" d="M19.33 13.03V.093H.09V13.03h19.24z"/>
    </defs>
    <g fill="none" fill-rule="evenodd">
        <path fill="#FFF" d="M2.296 9.221c1.318 0 2.344 1.103 2.344 2.302v29.924c0 1.198-1.026 2.3-2.344 2.3-1.27 0-2.296-1.102-2.296-2.3V11.523c0-1.199 1.026-2.302 2.296-2.302M31.713 30.8c0-4.89-3.663-7.96-7.717-7.96s-7.717 3.07-7.717 7.96v10.647c0 1.198-1.074 2.3-2.344 2.3-1.27 0-2.344-1.102-2.344-2.3v-10.31c0-7.002 5.568-12.325 12.405-12.325 6.838 0 12.406 5.37 12.406 12.324v10.31c0 1.2-1.123 2.302-2.394 2.302-1.269 0-2.295-1.103-2.295-2.301V30.8zM52.617 43.268h-2.442c-3.468 0-6.154-2.733-6.154-5.994V23.368h-1.905c-1.172 0-2.051-.912-2.051-2.063 0-1.006.879-2.014 2.051-2.014h1.905v-4.124c0-1.246 1.123-2.254 2.392-2.254 1.222 0 2.345 1.008 2.345 2.254v4.124h4.494c1.123 0 2.1.864 2.1 2.014 0 1.151-.977 2.063-2.1 2.063h-4.494v13.906c0 1.15 1.026 1.918 1.954 1.918h1.905c1.171 0 2.1.911 2.1 2.062 0 1.151-.929 2.014-2.1 2.014M61.75 29.458h15.873c-.342-3.261-3.614-6.81-7.814-6.81-4.103 0-7.669 2.973-8.059 6.81zm0 3.692c.586 4.076 4.103 6.666 8.303 6.666 2.686 0 4.786-1.055 6.105-1.775a2.613 2.613 0 0 1 1.172-.287c1.172 0 2.002.863 2.002 1.966 0 .91-.586 1.582-1.025 1.822-.977.576-4.005 2.206-8.254 2.206-7.326 0-12.894-5.37-12.894-12.516 0-6.953 5.812-12.42 12.65-12.42 6.984 0 12.014 5.658 12.014 11.413 0 1.486-1.22 2.925-2.735 2.925H61.75zM92.128 41.447c0 1.198-1.074 2.301-2.344 2.301-1.27 0-2.344-1.103-2.344-2.301V9.605c0-1.199 1.074-2.302 2.344-2.302 1.27 0 2.344 1.103 2.344 2.302v31.842zM118.893 30.896c0-4.555-3.273-8.104-7.962-8.104-4.785 0-8.302 3.837-8.302 8.44 0 4.604 3.42 8.584 8.302 8.584 4.787 0 7.962-3.74 7.962-8.344v-.576zm4.347 10.55c0 1.247-1.075 2.302-2.344 2.302-1.27 0-2.345-1.055-2.345-2.301v-1.248c-1.71 1.87-4.298 3.549-8.254 3.549-6.593 0-12.063-5.515-12.063-12.516s5.568-12.42 12.063-12.42c3.956 0 6.545 1.678 8.254 3.548v-1.246c0-1.295 1.172-2.302 2.345-2.302 1.269 0 2.344 1.007 2.344 2.302v20.333zM140.383 34.301l-7.472 8.775c-.343.432-1.026.672-1.661.672-1.221 0-2.15-1.007-2.15-2.062 0-.527.196-1.007.49-1.343l8.009-9.158-7.766-8.968c-.293-.336-.488-.767-.488-1.343 0-1.055.88-2.062 2.198-2.062.586 0 1.27.288 1.612.671l7.228 8.44 7.18-8.44c.39-.431 1.123-.67 1.708-.67 1.173 0 2.1 1.006 2.1 2.06 0 .577-.195 1.008-.488 1.344l-7.716 8.968 7.912 9.158c.293.336.488.816.488 1.343 0 1.055-.927 2.062-2.1 2.062-.586 0-1.367-.24-1.71-.672l-7.374-8.775zM167.391 52.763c-.342.815-1.417 1.535-2.198 1.535-1.221 0-2.295-1.008-2.295-2.302 0-.384.195-.911.342-1.295l3.223-8.392c-2.54 0-3.419-.91-3.858-1.965l-7.961-18.463c-.098-.192-.146-.575-.146-.767 0-1.199.878-2.302 2.392-2.302.782 0 1.661.527 2.1 1.535l8.401 19.756 7.521-19.756c.342-.864 1.221-1.535 2.247-1.535a2.334 2.334 0 0 1 2.344 2.35c0 .191-.244.91-.44 1.39l-11.672 30.211z"/>
        <g transform="translate(219.078 .305)">
            <mask id="b" fill="#fff">
                <use xlink:href="#a"/>
            </mask>
            <path fill="#FFF" d="M5.005 6.12C6.565 5.238 7.1 3.28 6.2 1.749 5.299.218 3.305-.307 1.745.577.185 1.46-.348 3.419.552 4.949l1.63 2.772 2.823-1.6z" mask="url(#b)"/>
        </g>
        <path fill="#FFF" d="M218.437 9.626l2.823-1.6 1.63 2.772c.9 1.53.366 3.488-1.193 4.372-1.56.884-3.553.36-4.454-1.171l-1.63-2.773 2.824-1.6z"/>
        <path fill="#FFF" d="M212.79 12.827l2.824-1.6-1.63-2.773c-.9-1.53-2.894-2.055-4.454-1.171l-11.527 6.534a3.17 3.17 0 0 0-1.194 4.373c.9 1.53 2.894 2.055 4.454 1.171l11.527-6.534z"/>
        <g transform="translate(219.078 50.917)">
            <mask id="d" fill="#fff">
                <use xlink:href="#c"/>
            </mask>
            <path fill="#FFF" d="M1.745 1.71A3.169 3.169 0 0 0 .552 6.08c.9 1.531 2.894 2.056 4.453 1.172C6.565 6.369 7.1 4.411 6.2 2.88L4.569.11l-2.824 1.6z" mask="url(#d)"/>
        </g>
        <path fill="#FFF" d="M226.47 49.425l-2.824 1.6-1.63-2.771a3.17 3.17 0 0 1 1.194-4.373c1.559-.884 3.553-.36 4.453 1.171l1.63 2.773-2.823 1.6z"/>
        <g transform="translate(229.204 39.168)">
            <mask id="f" fill="#fff">
                <use xlink:href="#e"/>
            </mask>
            <path fill="#FFF" d="M2.913 7.056L.089 8.657l1.63 2.772c.9 1.53 2.894 2.056 4.453 1.172L17.7 6.066c1.56-.884 2.094-2.841 1.193-4.372C17.993.163 16-.362 14.44.522L2.913 7.056z" mask="url(#f)"/>
        </g>
        <path fill="#FFF" d="M225.995 38.606l-1.63-2.772 2.823-1.6 8.578-4.863 2.823-1.6 1.63 2.772a3.17 3.17 0 0 1-1.193 4.373l-8.578 4.862c-1.56.884-3.552.36-4.453-1.172M222.735 33.062l1.63 2.772-8.83 5.006-1.63-2.772c-.901-1.531-.366-3.489 1.193-4.373l3.184-1.805c1.56-.883 3.553-.359 4.453 1.172M215.534 40.84l1.63 2.772c.9 1.53.366 3.489-1.193 4.373l-4.928 2.793c-1.56.884-3.553.36-4.453-1.172-.9-1.53-.366-3.488 1.193-4.372l2.824-1.6 4.927-2.794zM238.589 27.771l-1.63-2.772a3.17 3.17 0 0 1 1.193-4.373l5.488-3.11c1.558-.883 3.552-.36 4.453 1.171a3.17 3.17 0 0 1-1.193 4.373l-2.824 1.6-5.487 3.111zM218.911 20.445l1.63 2.772-2.823 1.6-8.577 4.863-2.823 1.6-1.63-2.772a3.17 3.17 0 0 1 1.193-4.373l8.577-4.861c1.56-.884 3.553-.36 4.453 1.17M222.171 25.989l-1.63-2.772 8.831-5.006 1.63 2.772c.9 1.531.366 3.489-1.193 4.373l-3.184 1.805c-1.56.884-3.553.359-4.454-1.172M229.372 18.21l-1.63-2.771a3.17 3.17 0 0 1 1.193-4.373l4.928-2.793c1.56-.884 3.553-.359 4.454 1.172.9 1.53.366 3.488-1.194 4.372l-2.823 1.6-4.928 2.794zM206.317 31.28l1.63 2.772c.9 1.53.367 3.489-1.193 4.373l-5.487 3.11c-1.559.884-3.552.36-4.453-1.171a3.17 3.17 0 0 1 1.193-4.373l2.823-1.6 5.487-3.11z"/>
    </g>
</svg>
