<svg xmlns="http://www.w3.org/2000/svg" width="92" height="92" viewBox="0 0 92 92">
    <g fill="none" fill-rule="evenodd">
        <path d="M27.408 83.47h-.001M11.15 50.889h-.002M10.302 49.179"/>
        <path fill="#DFA22F" d="M59.683 5.717A8.19 8.19 0 0 0 49.363.463a8.182 8.182 0 0 0-5.258 10.312L65.282 75.89a8.191 8.191 0 0 0 9.963 5.074c4.347-1.25 6.996-5.864 5.61-10.13L59.682 5.718z"/>
        <path fill="#3CB187" d="M26.87 16.372a8.192 8.192 0 0 0-10.32-5.255 8.183 8.183 0 0 0-5.259 10.314l21.177 65.114a8.19 8.19 0 0 0 9.963 5.074c4.347-1.25 6.997-5.864 5.61-10.13L26.87 16.371z"/>
        <path fill="#CE1E5B" d="M86.339 59.645a8.183 8.183 0 0 0 5.258-10.313c-1.398-4.299-6.018-6.652-10.32-5.255L16.121 65.24c-4.019 1.452-6.277 5.791-5.078 9.956 1.251 4.343 5.868 6.991 10.137 5.605l65.158-21.157z"/>
        <path fill="#392538" d="M29.701 78.036l15.573-5.057-5.06-15.564-15.574 5.058L29.7 78.036z"/>
        <path fill="#BB242A" d="M62.515 67.38l15.573-5.056-5.061-15.568-15.574 5.06 5.062 15.564z"/>
        <path fill="#72C5CD" d="M75.677 26.852a8.184 8.184 0 0 0 5.258-10.313c-1.398-4.299-6.018-6.652-10.32-5.255L5.458 32.448C1.44 33.9-.819 38.239.381 42.404c1.25 4.343 5.867 6.991 10.137 5.605l65.159-21.157z"/>
        <path fill="#248C73" d="M19.036 45.244l15.576-5.057-5.06-15.565-15.578 5.06 5.062 15.562z"/>
        <path fill="#62803A" d="M51.85 34.589l15.576-5.058-5.062-15.567-15.576 5.06 5.062 15.565z"/>
        <path d="M-18-18h128v128H-18z"/>
    </g>
</svg>
